<svg xmlns="http://www.w3.org/2000/svg" width="500" height="500" viewBox="0 0 500 500">
<g>
<path d="M 303.28 434.64 C298.46,436.68 183.98,436.56 179.26,434.51 C172.33,431.50 171.14,421.58 177.11,416.56 L 180.15 414.00 L 231.00 414.00 L 231.00 380.00 L 158.75 379.98 C103.39,379.97 85.56,379.67 82.50,378.71 C71.53,375.25 62.32,367.45 57.43,357.48 L 54.50 351.50 L 54.50 196.50 L 57.30 190.81 C62.83,179.54 72.46,171.56 84.35,168.39 C91.17,166.58 110.78,166.62 124.56,168.47 C160.24,173.27 189.22,189.24 218.58,220.28 C230.23,232.60 239.83,246.73 251.03,268.05 C263.20,291.24 269.27,300.08 282.42,313.77 C313.23,345.85 342.13,359.04 381.50,358.97 C392.67,358.95 393.84,358.77 398.44,356.23 C401.95,354.28 404.04,352.23 405.69,349.09 L 408.00 344.69 L 408.00 202.39 L 405.06 197.76 C403.82,195.80 403.09,194.31 401.99,193.17 C398.43,189.47 391.02,189.47 350.02,189.50 C346.40,189.50 342.53,189.50 338.37,189.50 C281.13,189.50 280.10,189.53 277.39,191.56 C272.78,195.00 270.72,198.62 269.89,204.70 C269.26,209.37 268.51,211.04 266.04,213.25 C258.77,219.76 248.00,214.43 248.00,204.31 C248.00,195.66 254.32,182.28 261.09,176.58 C265.64,172.75 272.61,169.43 279.00,168.05 C286.89,166.35 396.95,167.03 402.22,168.82 C413.67,172.70 425.00,184.61 428.42,196.38 C430.70,204.22 430.79,342.83 428.52,350.31 C424.91,362.19 416.77,371.88 406.22,376.82 C400.78,379.37 399.60,379.52 382.29,379.83 C368.93,380.07 361.60,379.73 354.75,378.57 C346.55,377.17 342.64,376.18 328.32,371.90 C326.57,371.37 320.01,368.34 313.75,365.17 C287.32,351.76 258.74,324.82 243.35,298.79 C240.00,293.13 233.56,281.52 229.04,273.00 C219.74,255.46 210.99,243.33 198.84,231.11 C179.37,211.53 160.35,199.47 139.50,193.48 C127.70,190.10 119.34,189.07 103.32,189.03 C89.09,189.00 86.04,189.67 81.66,193.81 C80.76,194.67 80.00,195.30 79.36,196.04 C75.99,199.95 75.99,206.77 76.00,264.20 C76.00,267.32 76.00,270.58 76.00,274.00 C76.00,276.57 76.00,279.05 76.00,281.45 C75.99,341.58 75.99,348.18 79.27,351.87 C79.81,352.47 80.43,352.99 81.15,353.65 C81.92,354.35 82.54,354.96 83.23,355.49 C87.81,359.00 95.08,359.00 162.36,359.00 C164.32,359.00 166.33,359.00 168.40,359.00 C172.91,359.00 177.17,359.00 181.19,359.00 C240.42,358.98 247.63,358.98 250.14,362.42 C250.65,363.12 250.97,363.98 251.51,365.01 C252.70,367.33 253.00,372.46 253.00,390.95 L 253.00 414.00 L 303.97 414.00 L 307.23 416.92 C310.00,419.39 310.50,420.52 310.50,424.31 C310.50,429.43 308.36,432.49 303.28,434.64 ZM 166.59 136.59 C159.67,139.76 148.55,140.57 141.03,138.46 C121.85,133.08 109.64,112.67 114.42,93.99 C118.36,78.61 129.13,68.17 144.25,65.05 C158.83,62.03 176.08,69.74 183.64,82.65 C194.99,102.02 187.02,127.24 166.59,136.59 ZM 357.18 136.68 C345.95,141.65 332.37,140.50 321.69,133.66 C315.07,129.43 311.47,125.19 307.72,117.20 C305.15,111.72 304.76,109.75 304.76,102.19 C304.76,94.68 305.17,92.58 307.71,86.97 C316.54,67.51 338.92,59.05 357.88,68.02 C387.50,82.03 387.08,123.46 357.18,136.68 ZM 335.50 116.59 C340.20,118.68 346.23,118.32 350.08,115.73 C361.99,107.70 360.23,91.66 346.91,86.98 C334.88,82.74 322.51,95.65 327.07,107.68 C328.49,111.43 331.82,114.95 335.50,116.59 ZM 143.50 116.14 C153.03,122.03 167.00,113.80 167.00,102.30 C167.00,90.41 155.56,83.01 144.64,87.84 C132.60,93.16 131.96,109.01 143.50,116.14 Z" fill="rgb(65,124,184)"/>
<path d="M 200.69 334.58 C197.37,337.45 190.69,337.87 187.22,335.44 C184.28,333.38 182.00,328.84 182.00,325.03 C182.00,320.62 178.41,307.86 175.14,300.64 C167.56,283.94 151.07,267.21 134.62,259.56 C125.89,255.49 122.02,254.29 111.78,252.43 C100.79,250.44 99.49,249.85 97.51,246.02 C94.96,241.08 95.57,237.23 99.54,233.26 L 103.09 229.71 L 110.29 230.33 C119.13,231.09 133.02,235.04 142.88,239.59 C159.53,247.27 175.83,261.02 185.97,275.95 C195.80,290.43 203.14,311.05 203.38,324.83 C203.49,331.69 203.32,332.31 200.69,334.58 ZM 125.02 335.99 C116.06,340.56 107.27,339.20 99.95,332.12 C92.17,324.58 90.98,314.44 96.77,305.05 C102.22,296.23 115.16,292.85 124.62,297.77 C133.28,302.27 138.38,313.01 135.96,321.65 C134.26,327.73 129.82,333.54 125.02,335.99 Z" fill="rgb(248,73,72)"/>
<path d="M 0.00 250.00 L 0.00 0.00 L 250.00 0.00 L 500.00 0.00 L 500.00 250.00 L 500.00 500.00 L 250.00 500.00 L 0.00 500.00 L 0.00 250.00 ZM 303.28 434.64 C308.36,432.49 310.50,429.43 310.50,424.31 C310.50,420.52 310.00,419.39 307.23,416.92 L 303.97 414.00 L 278.48 414.00 L 253.00 414.00 L 253.00 390.95 C253.00,372.46 252.70,367.33 251.51,365.01 C248.21,358.64 253.15,359.00 168.40,359.00 C84.86,359.00 87.13,359.14 81.15,353.65 C75.82,348.75 76.00,351.57 76.00,274.00 C76.00,195.60 75.73,199.42 81.66,193.81 C86.04,189.67 89.09,189.00 103.32,189.03 C119.34,189.07 127.70,190.10 139.50,193.48 C160.35,199.47 179.37,211.53 198.84,231.11 C210.99,243.33 219.74,255.46 229.04,273.00 C233.56,281.52 240.00,293.13 243.35,298.79 C258.74,324.82 287.32,351.76 313.75,365.17 C320.01,368.34 326.57,371.37 328.32,371.90 C342.64,376.18 346.55,377.17 354.75,378.57 C361.60,379.73 368.93,380.07 382.29,379.83 C399.60,379.52 400.78,379.37 406.22,376.82 C416.77,371.88 424.91,362.19 428.52,350.31 C430.79,342.83 430.70,204.22 428.42,196.38 C425.00,184.61 413.67,172.70 402.22,168.82 C396.95,167.03 286.89,166.35 279.00,168.05 C272.61,169.43 265.64,172.75 261.09,176.58 C254.32,182.28 248.00,195.66 248.00,204.31 C248.00,214.43 258.77,219.76 266.04,213.25 C268.51,211.04 269.26,209.37 269.89,204.70 C270.72,198.62 272.78,195.00 277.39,191.56 C280.10,189.53 281.13,189.50 338.37,189.50 C404.24,189.50 399.45,188.91 405.06,197.76 L 408.00 202.39 L 408.00 273.54 L 408.00 344.69 L 405.69 349.09 C404.04,352.23 401.95,354.28 398.44,356.23 C393.84,358.77 392.67,358.95 381.50,358.97 C342.13,359.04 313.23,345.85 282.42,313.77 C269.27,300.08 263.20,291.24 251.03,268.05 C239.83,246.73 230.23,232.60 218.58,220.28 C189.22,189.24 160.24,173.27 124.56,168.47 C110.78,166.62 91.17,166.58 84.35,168.39 C72.46,171.56 62.83,179.54 57.30,190.81 L 54.50 196.50 L 54.50 274.00 L 54.50 351.50 L 57.43 357.48 C62.32,367.45 71.53,375.25 82.50,378.71 C85.56,379.67 103.39,379.97 158.75,379.98 L 231.00 380.00 L 231.00 397.00 L 231.00 414.00 L 205.58 414.00 L 180.15 414.00 L 177.11 416.56 C171.14,421.58 172.33,431.50 179.26,434.51 C183.98,436.56 298.46,436.68 303.28,434.64 ZM 125.02 335.99 C129.82,333.54 134.26,327.73 135.96,321.65 C138.38,313.01 133.28,302.27 124.62,297.77 C115.16,292.85 102.22,296.23 96.77,305.05 C90.98,314.44 92.17,324.58 99.95,332.12 C107.27,339.20 116.06,340.56 125.02,335.99 ZM 200.69 334.58 C203.32,332.31 203.49,331.69 203.38,324.83 C203.14,311.05 195.80,290.43 185.97,275.95 C175.83,261.02 159.53,247.27 142.88,239.59 C133.02,235.04 119.13,231.09 110.29,230.33 L 103.09 229.71 L 99.54 233.26 C95.57,237.23 94.96,241.08 97.51,246.02 C99.49,249.85 100.79,250.44 111.78,252.43 C122.02,254.29 125.89,255.49 134.62,259.56 C151.07,267.21 167.56,283.94 175.14,300.64 C178.41,307.86 182.00,320.62 182.00,325.03 C182.00,328.84 184.28,333.38 187.22,335.44 C190.69,337.87 197.37,337.45 200.69,334.58 ZM 166.59 136.59 C187.02,127.24 194.99,102.02 183.64,82.65 C176.08,69.74 158.83,62.03 144.25,65.05 C129.13,68.17 118.36,78.61 114.42,93.99 C109.64,112.67 121.85,133.08 141.03,138.46 C148.55,140.57 159.67,139.76 166.59,136.59 ZM 357.18 136.68 C387.08,123.46 387.50,82.03 357.88,68.02 C338.92,59.05 316.54,67.51 307.71,86.97 C305.17,92.58 304.76,94.68 304.76,102.19 C304.76,109.75 305.15,111.72 307.72,117.20 C311.47,125.19 315.07,129.43 321.69,133.66 C332.37,140.50 345.95,141.65 357.18,136.68 ZM 143.50 116.14 C131.96,109.01 132.60,93.16 144.64,87.84 C155.56,83.01 167.00,90.41 167.00,102.30 C167.00,113.80 153.03,122.03 143.50,116.14 ZM 335.50 116.59 C331.82,114.95 328.49,111.43 327.07,107.68 C322.51,95.65 334.88,82.74 346.91,86.98 C360.23,91.66 361.99,107.70 350.08,115.73 C346.23,118.32 340.20,118.68 335.50,116.59 Z" fill="rgb(253,254,254)"/>
</g>
</svg>